<svg t="1628502595146" class="icon" viewBox="0 0 1024 1024" version="1.1" xmlns="http://www.w3.org/2000/svg" p-id="2018" width="24" height="24"><path d="M704 556.8L467.2 320V275.2l64-64c48-48 182.4-99.2 278.4 0 99.2 99.2 48 233.6 0 278.4l-64 64H704z m-169.6-259.2l188.8 188.8L768 448c19.2-19.2 70.4-118.4 0-188.8s-169.6-19.2-188.8 0l-44.8 38.4z" p-id="2019" fill="#d7dae0"></path><path d="M790.4 265.6c-9.6 0-16-3.2-22.4-9.6-12.8-12.8-12.8-32 0-44.8l105.6-105.6c12.8-12.8 32-12.8 44.8 0 12.8 12.8 12.8 32 0 44.8L812.8 256c-6.4 6.4-16 9.6-22.4 9.6zM345.6 867.2c-44.8 0-92.8-16-134.4-54.4-99.2-99.2-48-233.6 0-278.4l64-64H320l233.6 233.6v44.8l-64 64c-25.6 25.6-83.2 54.4-144 54.4zM256 576c-19.2 19.2-70.4 118.4 0 188.8s169.6 19.2 188.8 0l41.6-41.6-188.8-188.8L256 576z" p-id="2020" fill="#d7dae0"></path><path d="M489.6 713.6c-9.6 0-16-3.2-22.4-9.6-12.8-12.8-12.8-32 0-44.8l86.4-86.4c12.8-12.8 32-12.8 44.8 0s12.8 32 0 44.8L512 704c-6.4 6.4-12.8 9.6-22.4 9.6zM128 928c-9.6 0-16-3.2-22.4-9.6-12.8-12.8-12.8-32 0-44.8L211.2 768c12.8-12.8 32-12.8 44.8 0s12.8 32 0 44.8l-105.6 105.6c-6.4 6.4-12.8 9.6-22.4 9.6zM342.4 566.4c-9.6 0-16-3.2-22.4-9.6-12.8-12.8-12.8-32 0-44.8l86.4-86.4c12.8-12.8 32-12.8 44.8 0s12.8 32 0 44.8l-86.4 86.4c-6.4 6.4-16 9.6-22.4 9.6z" p-id="2021" fill="#d7dae0"></path></svg>